# xmcd
#
# Track frame offsets:
#	150
#	16057
#	32532
#	55899
#	75516
#	95572
#	113591
#	131077
#	148464
#	168851
#	185972
#
# Disc length: 2719 seconds
#
# Revision: 0
# Processed by: cddbd v1.5.2PL0 Copyright (c) Steve Scherf et al.
# Submitted via: EasyCDDAExtractor 10.0.1.1
#
DISCID=900a9d0b
DTITLE=Jetty Road - Life at a Million Miles
DYEAR=2009
DGENRE=Country
TTITLE0=Million Miles
TTITLE1=Good Times
TTITLE2=Running With The Wind
TTITLE3=I Never Knew What I Had
TTITLE4=World Keeps Turning
TTITLE5=Rolling Stone
TTITLE6=This Time Around
TTITLE7=Something To Believe
TTITLE8=I Have Been
TTITLE9=What A Beautiful Day
TTITLE10=Road To Nowhere
EXTD=
EXTT0=
EXTT1=
EXTT2=
EXTT3=
EXTT4=
EXTT5=
EXTT6=
EXTT7=
EXTT8=
EXTT9=
EXTT10=
PLAYORDER=
